<?xml version="1.0" encoding="utf-8"?>
<!-- Generator: Adobe Illustrator 16.0.3, SVG Export Plug-In . SVG Version: 6.00 Build 0)  -->
<!DOCTYPE svg PUBLIC "-//W3C//DTD SVG 1.1//EN" "http://www.w3.org/Graphics/SVG/1.1/DTD/svg11.dtd">
<svg version="1.1" id="Layer_1" xmlns="http://www.w3.org/2000/svg" xmlns:xlink="http://www.w3.org/1999/xlink" x="0px" y="0px"
	 width="457.666px" height="307.889px" viewBox="0 0 457.666 307.889" enable-background="new 0 0 457.666 307.889"
	 xml:space="preserve">
<rect x="12.666" y="18" fill="#F0ECEC" width="434" height="284"/>
<rect x="12.666" y="18" fill="#3F7CFF" width="434" height="28"/>
<rect x="12.666" y="61" fill="#C2C0B4" width="15" height="241"/>
<rect x="27.666" y="61" fill="#D1D0C6" width="102" height="241"/>
<rect x="12.666" y="274" fill="#C2C0B4" width="434" height="28"/>
<rect x="404.666" y="279" fill="#3F7CFF" width="35" height="18"/>
<rect x="25.666" y="279" fill="#B3B0A1" width="35" height="18"/>
<rect x="118.666" y="65" fill="#B3B0A1" width="6" height="164"/>
<rect x="12.666" y="46" fill="#C2C0B4" width="434" height="15"/>
<rect x="31.666" y="54" fill="#595050" width="74" height="2"/>
<rect x="31.666" y="70" fill="#867878" width="63" height="2"/>
<rect x="31.666" y="82" fill="#867878" width="47" height="2"/>
<rect x="31.666" y="94" fill="#867878" width="50" height="2"/>
<rect x="31.666" y="104" fill="#867878" width="37" height="2"/>
<rect x="31.666" y="114" fill="#867878" width="63" height="2"/>
<rect x="31.666" y="126" fill="#867878" width="47" height="2"/>
<rect x="31.666" y="138" fill="#867878" width="50" height="2"/>
<rect x="31.666" y="148" fill="#867878" width="37" height="2"/>
<rect x="31.666" y="158" fill="#867878" width="63" height="2"/>
<rect x="31.666" y="170" fill="#867878" width="47" height="2"/>
<rect x="31.666" y="182" fill="#867878" width="50" height="2"/>
<rect x="31.666" y="192" fill="#867878" width="37" height="2"/>
</svg>
