<?xml version="1.0" encoding="utf-8"?>
<!-- Generator: Adobe Illustrator 16.0.3, SVG Export Plug-In . SVG Version: 6.00 Build 0)  -->
<!DOCTYPE svg PUBLIC "-//W3C//DTD SVG 1.1//EN" "http://www.w3.org/Graphics/SVG/1.1/DTD/svg11.dtd">
<svg version="1.1" id="Layer_1" xmlns="http://www.w3.org/2000/svg" xmlns:xlink="http://www.w3.org/1999/xlink" x="0px" y="0px"
	 width="260.938px" height="242.188px" viewBox="0 0 260.938 242.188" enable-background="new 0 0 260.938 242.188"
	 xml:space="preserve">
<rect x="29.031" y="16.875" fill="#0D53FF" width="26" height="26"/>
<rect x="29.031" y="42.875" fill="#FFFFFF" width="26" height="26"/>
<rect x="29.031" y="198.875" fill="#9EBAFF" width="26" height="26"/>
<rect x="29.031" y="172.875" fill="#3D75FF" width="26" height="26"/>
<rect x="29.031" y="146.875" fill="#FFFFFF" width="26" height="26"/>
<rect x="29.031" y="120.875" fill="#CFDDFF" width="26" height="26"/>
<rect x="29.031" y="94.875" fill="#0D53FF" width="26" height="26"/>
<rect x="29.031" y="68.875" fill="#3D75FF" width="26" height="26"/>
<rect x="55.031" y="16.875" fill="#CFDDFF" width="26" height="26"/>
<rect x="55.031" y="42.875" fill="#CFDDFF" width="26" height="26"/>
<rect x="55.031" y="198.875" fill="#FFFFFF" width="26" height="26"/>
<rect x="55.031" y="172.875" fill="#9EBAFF" width="26" height="26"/>
<rect x="55.031" y="146.875" fill="#FFFFFF" width="26" height="26"/>
<rect x="55.031" y="120.875" fill="#0D53FF" width="26" height="26"/>
<rect x="55.031" y="94.875" fill="#CFDDFF" width="26" height="26"/>
<rect x="55.031" y="68.875" fill="#0D53FF" width="26" height="26"/>
<rect x="81.031" y="16.875" fill="#3D75FF" width="26" height="26"/>
<rect x="81.031" y="42.875" fill="#FFFFFF" width="26" height="26"/>
<rect x="81.031" y="198.875" fill="#FFFFFF" width="26" height="26"/>
<rect x="81.031" y="172.875" fill="#FFFFFF" width="26" height="26"/>
<rect x="81.031" y="146.875" fill="#FFFFFF" width="26" height="26"/>
<rect x="81.031" y="120.875" fill="#3D75FF" width="26" height="26"/>
<rect x="81.031" y="94.875" fill="#9EBAFF" width="26" height="26"/>
<rect x="81.031" y="68.875" fill="#9EBAFF" width="26" height="26"/>
<rect x="107.031" y="16.875" fill="#CFDDFF" width="26" height="26"/>
<rect x="107.031" y="42.875" fill="#3D75FF" width="26" height="26"/>
<rect x="107.031" y="198.875" fill="#0D53FF" width="26" height="26"/>
<rect x="107.031" y="172.875" fill="#CFDDFF" width="26" height="26"/>
<rect x="107.031" y="146.875" fill="#0D53FF" width="26" height="26"/>
<rect x="107.031" y="120.875" fill="#FFFFFF" width="26" height="26"/>
<rect x="107.031" y="94.875" fill="#0D53FF" width="26" height="26"/>
<rect x="107.031" y="68.875" fill="#CFDDFF" width="26" height="26"/>
<rect x="133.031" y="16.875" fill="#0D53FF" width="26" height="26"/>
<rect x="133.031" y="42.875" fill="#3D75FF" width="26" height="26"/>
<rect x="133.031" y="198.875" fill="#3D75FF" width="26" height="26"/>
<rect x="133.031" y="172.875" fill="#0D53FF" width="26" height="26"/>
<rect x="133.031" y="146.875" fill="#0D53FF" width="26" height="26"/>
<rect x="133.031" y="120.875" fill="#CFDDFF" width="26" height="26"/>
<rect x="133.031" y="94.875" fill="#3D75FF" width="26" height="26"/>
<rect x="133.031" y="68.875" fill="#FFFFFF" width="26" height="26"/>
<rect x="159.031" y="16.875" fill="#CFDDFF" width="26" height="26"/>
<rect x="159.031" y="42.875" fill="#FFFFFF" width="26" height="26"/>
<rect x="159.031" y="198.875" fill="#FFFFFF" width="26" height="26"/>
<rect x="159.031" y="172.875" fill="#9EBAFF" width="26" height="26"/>
<rect x="159.031" y="146.875" fill="#3D75FF" width="26" height="26"/>
<rect x="159.031" y="120.875" fill="#0D53FF" width="26" height="26"/>
<rect x="159.031" y="94.875" fill="#FFFFFF" width="26" height="26"/>
<rect x="159.031" y="68.875" fill="#0D53FF" width="26" height="26"/>
<rect x="185.031" y="16.875" fill="#CFDDFF" width="26" height="26"/>
<rect x="185.031" y="42.875" fill="#3D75FF" width="26" height="26"/>
<rect x="185.031" y="198.875" fill="#3D75FF" width="26" height="26"/>
<rect x="185.031" y="172.875" fill="#CFDDFF" width="26" height="26"/>
<rect x="185.031" y="146.875" fill="#FFFFFF" width="26" height="26"/>
<rect x="185.031" y="120.875" fill="#0D53FF" width="26" height="26"/>
<rect x="185.031" y="94.875" fill="#CFDDFF" width="26" height="26"/>
<rect x="185.031" y="68.875" fill="#FFFFFF" width="26" height="26"/>
<rect x="211.031" y="16.875" fill="#FFFFFF" width="26" height="26"/>
<rect x="211.031" y="42.875" fill="#3D75FF" width="26" height="26"/>
<rect x="211.031" y="198.875" fill="#0D53FF" width="26" height="26"/>
<rect x="211.031" y="172.875" fill="#FFFFFF" width="26" height="26"/>
<rect x="211.031" y="146.875" fill="#0D53FF" width="26" height="26"/>
<rect x="211.031" y="120.875" fill="#CFDDFF" width="26" height="26"/>
<rect x="211.031" y="94.875" fill="#0D53FF" width="26" height="26"/>
<rect x="211.031" y="68.875" fill="#CFDDFF" width="26" height="26"/>
</svg>
