<?xml version="1.0" encoding="utf-8"?>
<!-- Generator: Adobe Illustrator 16.0.3, SVG Export Plug-In . SVG Version: 6.00 Build 0)  -->
<!DOCTYPE svg PUBLIC "-//W3C//DTD SVG 1.1//EN" "http://www.w3.org/Graphics/SVG/1.1/DTD/svg11.dtd">
<svg version="1.1" id="Layer_1" xmlns="http://www.w3.org/2000/svg" xmlns:xlink="http://www.w3.org/1999/xlink" x="0px" y="0px"
	 width="474px" height="334px" viewBox="0 0 474 334" enable-background="new 0 0 474 334" xml:space="preserve">
<path fill="#3A3A3A" d="M425,311.061c0,4.753-3.623,8.939-8.063,8.939H59.135c-4.44,0-8.135-4.187-8.135-8.939v-6.454
	c0-4.753,3.695-8.606,8.135-8.606h357.801c4.44,0,8.063,3.854,8.063,8.606V311.061z"/>
<path fill="#3A3A3A" d="M425,306.546c0,7.43-3.394,13.454-7.579,13.454h-8.842c-4.186,0-7.579-6.024-7.579-13.454v-47.092
	c0-7.43,3.394-13.454,7.579-13.454h8.842c4.186,0,7.579,6.024,7.579,13.454V306.546z"/>
<path fill="#4D4D4D" d="M250,260.838c0,6.717-3.301,12.162-7.861,12.162h-6.882c-4.56,0-8.257-5.445-8.257-12.162V72.324
	C227,65.607,230.697,60,235.257,60h6.882c4.56,0,7.861,5.607,7.861,12.324V260.838z"/>
<g>
	<line fill="#646470" x1="240" y1="54.336" x2="307.43" y2="111"/>
	<g>
		<path fill="#4D4D4D" d="M232.929,61.407c22.477,18.888,44.953,37.776,67.43,56.664c4.169,3.503,10.041,4.102,14.143,0
			c3.603-3.604,4.177-10.632,0-14.143c-22.477-18.888-44.953-37.776-67.43-56.664c-4.169-3.503-10.041-4.102-14.143,0
			C229.326,50.868,228.751,57.896,232.929,61.407L232.929,61.407z"/>
	</g>
</g>
<g>
	<line fill="#706F6A" x1="238" y1="53.336" x2="171.895" y2="110"/>
	<g>
		<path fill="#4D4D4D" d="M230.929,46.265c-22.035,18.888-44.07,37.776-66.105,56.664c-4.142,3.551-3.631,10.511,0,14.143
			c4.074,4.073,10.008,3.544,14.143,0c22.035-18.888,44.07-37.776,66.105-56.664c4.142-3.55,3.631-10.511,0-14.143
			C240.998,42.191,235.063,42.721,230.929,46.265L230.929,46.265z"/>
	</g>
</g>
<line fill="none" x1="238" y1="60.336" x2="164.471" y2="121.681"/>
<path fill="#3A3A3A" d="M75,306.485C75,313.949,71.606,320,67.421,320h-8.842C54.394,320,51,313.949,51,306.485v-47.304
	C51,251.718,54.394,246,58.579,246h8.842c4.186,0,7.579,5.718,7.579,13.182V306.485z"/>
</svg>
