<?xml version="1.0" encoding="utf-8"?>
<!-- Generator: Adobe Illustrator 16.0.3, SVG Export Plug-In . SVG Version: 6.00 Build 0)  -->
<!DOCTYPE svg PUBLIC "-//W3C//DTD SVG 1.1//EN" "http://www.w3.org/Graphics/SVG/1.1/DTD/svg11.dtd">
<svg version="1.1" id="Layer_1" xmlns="http://www.w3.org/2000/svg" xmlns:xlink="http://www.w3.org/1999/xlink" x="0px" y="0px"
	 width="110.667px" height="95.333px" viewBox="0 0 110.667 95.333" enable-background="new 0 0 110.667 95.333"
	 xml:space="preserve">
<g>
	<path fill="#CCD6F9" d="M79.53,72.5c1.149,0.415,2.2,1.03,3.114,1.803l10.383-17.982c-1.147-0.413-2.2-1.028-3.114-1.802
		L79.53,72.5z M45.287,80.284c0.105,0.584,0.161,1.186,0.161,1.8s-0.056,1.214-0.161,1.799h20.768
		c-0.104-0.585-0.161-1.185-0.161-1.799s0.058-1.216,0.161-1.8H45.287z M31.811,20.978c-1.149-0.414-2.2-1.029-3.114-1.803
		L18.313,37.159c1.148,0.413,2.201,1.028,3.115,1.802L31.811,20.978z M45.287,13.196h20.768c-0.104-0.584-0.161-1.185-0.161-1.799
		s0.058-1.215,0.161-1.799H45.287c0.105,0.584,0.161,1.185,0.161,1.799S45.392,12.611,45.287,13.196z M93.027,37.159L82.644,19.175
		c-0.914,0.773-1.965,1.389-3.114,1.803L89.913,38.96C90.827,38.188,91.879,37.572,93.027,37.159z M18.313,56.321l10.384,17.983
		c0.914-0.773,1.967-1.389,3.114-1.804L21.428,54.519C20.514,55.292,19.463,55.908,18.313,56.321z M86.899,50.194l-9.024,5.209
		V48.54h8.586c-0.105-0.585-0.163-1.186-0.163-1.8s0.058-1.215,0.163-1.8h-8.586v-6.864l9.024,5.21
		c0.416-1.149,1.03-2.2,1.804-3.115l-10.828-6.25V21.418c-0.583,0.104-1.185,0.162-1.799,0.162s-1.215-0.058-1.8-0.162v10.423
		l-5.944-3.433l4.29-7.431c-1.148-0.414-2.201-1.029-3.115-1.803l-4.292,7.435l-5.946-3.433l9.028-5.212
		c-0.771-0.914-1.388-1.966-1.802-3.115L55.671,21.1l-10.825-6.25c-0.414,1.149-1.028,2.201-1.802,3.115l9.028,5.212l-5.946,3.433
		l-4.292-7.435c-0.914,0.773-1.967,1.389-3.115,1.803l4.29,7.431l-5.944,3.434V21.418c-0.586,0.104-1.186,0.162-1.8,0.162
		s-1.216-0.058-1.799-0.162V33.92l-10.828,6.25c0.773,0.915,1.39,1.966,1.804,3.115l9.024-5.211v6.865h-8.584
		c0.104,0.585,0.161,1.186,0.161,1.8s-0.058,1.215-0.161,1.8h8.584v6.864l-9.024-5.21c-0.414,1.147-1.03,2.2-1.804,3.115
		l10.828,6.25v12.502c0.583-0.104,1.185-0.162,1.799-0.162s1.214,0.058,1.8,0.162V61.637l5.944,3.433l-4.29,7.431
		c1.148,0.415,2.201,1.03,3.115,1.803l4.292-7.434l5.944,3.432l-9.026,5.212c0.773,0.915,1.388,1.967,1.802,3.116l10.825-6.25
		l10.823,6.25c0.414-1.149,1.03-2.201,1.802-3.116l-9.026-5.212l5.944-3.432l4.292,7.435c0.916-0.773,1.967-1.389,3.115-1.804
		l-4.29-7.431l5.944-3.432v10.423c0.585-0.104,1.186-0.162,1.8-0.162s1.216,0.058,1.799,0.162V59.559l10.828-6.25
		C87.929,52.394,87.315,51.341,86.899,50.194z M55.669,25.255l7.746,4.472l-7.744,13.414l-7.746-13.414L55.669,25.255z
		 M37.065,35.998l7.743-4.471l7.744,13.414H37.065V35.998z M44.808,61.954l-7.743-4.472V48.54h15.487L44.808,61.954z M55.669,68.223
		l-7.744-4.471l7.746-13.414l7.744,13.413L55.669,68.223z M74.276,57.482l-7.744,4.471L58.787,48.54h15.489V57.482z M74.276,44.94
		H58.787l7.745-13.414l7.744,4.471V44.94z"/>
	<g>
		<circle fill="#0D53FF" cx="96.482" cy="46.74" r="8.338"/>
		<circle fill="#0D53FF" cx="76.076" cy="11.396" r="8.338"/>
		<circle fill="#0D53FF" cx="35.265" cy="11.396" r="8.338"/>
		<circle fill="#0D53FF" cx="14.86" cy="46.74" r="8.338"/>
		<circle fill="#0D53FF" cx="35.265" cy="82.083" r="8.338"/>
		<circle fill="#0D53FF" cx="76.076" cy="82.083" r="8.338"/>
	</g>
</g>
</svg>
