<?xml version="1.0" encoding="utf-8"?>
<!-- Generator: Adobe Illustrator 16.0.3, SVG Export Plug-In . SVG Version: 6.00 Build 0)  -->
<!DOCTYPE svg PUBLIC "-//W3C//DTD SVG 1.1//EN" "http://www.w3.org/Graphics/SVG/1.1/DTD/svg11.dtd">
<svg version="1.1" id="Layer_1" xmlns="http://www.w3.org/2000/svg" xmlns:xlink="http://www.w3.org/1999/xlink" x="0px" y="0px"
	 width="275.781px" height="109.375px" viewBox="0 0 275.781 109.375" enable-background="new 0 0 275.781 109.375"
	 xml:space="preserve">
<g>
	<g>
		<path fill="#333333" d="M9.015,26.604c39.477,25.634,78.954,51.269,118.43,76.902c0.627,0.407,1.255,0.815,1.882,1.223
			c10.853,7.047,20.866-10.275,10.095-17.27C99.946,61.825,60.469,36.19,20.992,10.557c-0.627-0.407-1.255-0.815-1.882-1.223
			C8.257,2.287-1.756,19.609,9.015,26.604L9.015,26.604z"/>
	</g>
</g>
<g>
	<g>
		<path fill="#333333" d="M254.266,9.334c-40.5,25.325-81,50.65-121.5,75.976c-1.146,0.717-2.292,1.433-3.438,2.149
			c-10.905,6.819-0.875,24.129,10.095,17.27c40.5-25.325,81-50.65,121.5-75.976c1.146-0.717,2.292-1.433,3.438-2.149
			C275.266,19.784,265.234,2.475,254.266,9.334L254.266,9.334z"/>
	</g>
</g>
</svg>
