<?xml version="1.0" encoding="utf-8"?>
<!-- Generator: Adobe Illustrator 16.0.3, SVG Export Plug-In . SVG Version: 6.00 Build 0)  -->
<!DOCTYPE svg PUBLIC "-//W3C//DTD SVG 1.1//EN" "http://www.w3.org/Graphics/SVG/1.1/DTD/svg11.dtd">
<svg version="1.1" id="Layer_1" xmlns="http://www.w3.org/2000/svg" xmlns:xlink="http://www.w3.org/1999/xlink" x="0px" y="0px"
	 width="101.297px" height="98.02px" viewBox="0 0 101.297 98.02" enable-background="new 0 0 101.297 98.02" xml:space="preserve">
<g>
	<g>
		<circle fill="#6E98FF" cx="73.641" cy="81.459" r="2.458"/>
	</g>
	<g>
		<circle fill="#3E82B6" cx="72.966" cy="88.889" r="2.456"/>
	</g>
	<g>
		<circle fill="#CCD6F9" cx="91.867" cy="38.353" r="2.854"/>
	</g>
	<g>
		<circle fill="#CCD6F9" cx="86.717" cy="34.786" r="1.506"/>
	</g>
	<path fill="#CCD6F9" d="M22.653,21.195l13.819,13.82c0.554-0.656,1.163-1.264,1.818-1.819l-13.819-13.82L22.653,21.195z
		 M80.455,46.295v-2.573H63.703c0.034,0.425,0.058,0.854,0.058,1.287s-0.023,0.861-0.058,1.286H80.455z M60.097,35.016L84.06,11.053
		l-1.818-1.819L58.278,33.195C58.934,33.752,59.543,34.359,60.097,35.016z M36.473,55.001L21.702,69.772l1.818,1.82v-0.001
		l14.771-14.771C37.636,56.266,37.026,55.657,36.473,55.001z M60.097,55.002c-0.554,0.655-1.163,1.264-1.818,1.819l30.777,30.776
		l1.818-1.818L60.097,55.002z"/>
	<g>
		<path fill="#0D53FF" d="M33.862,45.009c0,7.965,6.459,14.422,14.422,14.422c7.966,0,14.422-6.457,14.422-14.422
			S56.25,30.587,48.284,30.587C40.321,30.587,33.862,37.044,33.862,45.009z M48.284,36.927c4.466,0,8.083,3.618,8.083,8.082
			s-3.617,8.083-8.083,8.083c-4.462,0-8.08-3.619-8.08-8.083S43.822,36.927,48.284,36.927z"/>
	</g>
	<g>
		<circle fill="#0D53FF" cx="80.457" cy="45.009" r="7.766"/>
	</g>
	<g>
		<circle fill="#0D53FF" cx="83.151" cy="10.144" r="9.509"/>
	</g>
	<g>
		<circle fill="#3D75FF" cx="72.295" cy="2.457" r="2.456"/>
	</g>
	<g>
		<circle fill="#3E82B6" cx="34.417" cy="13.551" r="2.457"/>
	</g>
	<g>
		<circle fill="#0D53FF" cx="23.562" cy="20.286" r="6.498"/>
	</g>
	<g>
		<circle fill="#0D53FF" cx="22.611" cy="70.683" r="8.399"/>
	</g>
	<g>
		<circle fill="#6E98FF" cx="8.745" cy="60.302" r="4.358"/>
	</g>
	<g>
		<circle fill="#CCD6F9" cx="7.636" cy="69.652" r="1.664"/>
	</g>
	<g>
		<circle fill="#0D53FF" cx="89.966" cy="86.688" r="11.331"/>
	</g>
</g>
</svg>
