<?xml version="1.0" encoding="utf-8"?>
<!-- Generator: Adobe Illustrator 16.0.3, SVG Export Plug-In . SVG Version: 6.00 Build 0)  -->
<!DOCTYPE svg PUBLIC "-//W3C//DTD SVG 1.1//EN" "http://www.w3.org/Graphics/SVG/1.1/DTD/svg11.dtd">
<svg version="1.1" id="Layer_1" xmlns="http://www.w3.org/2000/svg" xmlns:xlink="http://www.w3.org/1999/xlink" x="0px" y="0px"
	 width="390.756px" height="361px" viewBox="0 0 390.756 361" enable-background="new 0 0 390.756 361" xml:space="preserve">
<ellipse fill="#1F4173" cx="189.916" cy="136.975" rx="100.84" ry="108.403"/>
<rect x="222.976" y="275.839" fill="#666666" width="5" height="1"/>
<path fill="#FFFFFF" d="M168.66,59.22c1.12-1.878,0.866-3.96-0.097-5.556c0.531-2.858-1.027-6-4.698-5.723
	c-9.129,0.69-16.16,5.275-22.334,11.797c-0.5,0.529-0.99,1.075-1.476,1.627c-2.482,1.936-4.889,3.916-7.209,5.86
	c-8.825,7.395-19.358,17.195-17.323,29.794c0.817,5.063,4.907,8.59,10.021,6.309c4.208-1.877,7.057-7.052,9.439-10.74
	c2.971-4.601,5.343-9.016,9.571-12.635c6.638-5.683,15.538-8.437,22.675-13.451C169.777,64.713,170.005,61.395,168.66,59.22z"/>
<path fill="#1F4173" d="M243.976,340.314c0,8.396-5.594,15.202-12.494,15.202h-83.014c-6.899,0-12.493-6.807-12.493-15.202l0,0
	c0-8.396,5.593-15.203,12.493-15.203h83.014C238.382,325.111,243.976,331.917,243.976,340.314L243.976,340.314z"/>
<path fill="#1F4173" d="M243.976,296.462c0,3.192-5.594,5.783-12.494,5.783h-83.014c-6.899,0-12.492-2.591-12.492-5.783l0,0
	c0-3.194,5.593-5.784,12.492-5.784h83.014C238.382,290.678,243.976,293.268,243.976,296.462L243.976,296.462z"/>
<path fill="#1F4173" d="M243.916,313.462c0,3.193-5.594,5.783-12.494,5.783h-83.014c-6.899,0-12.492-2.59-12.492-5.783l0,0
	c0-3.195,5.593-5.784,12.492-5.784h83.014C238.322,307.678,243.916,310.267,243.916,313.462L243.916,313.462z"/>
<path fill="#1F4173" d="M243.976,272.727c0,5.959-5.713,10.791-12.763,10.791h-82.475c-7.048,0-12.762-4.832-12.762-10.791v-58.69
	c0-5.959,5.714-10.79,12.762-10.79h82.475c7.05,0,12.763,4.831,12.763,10.79V272.727z"/>
</svg>
