<?xml version="1.0" encoding="utf-8"?>
<!-- Generator: Adobe Illustrator 16.0.3, SVG Export Plug-In . SVG Version: 6.00 Build 0)  -->
<!DOCTYPE svg PUBLIC "-//W3C//DTD SVG 1.1//EN" "http://www.w3.org/Graphics/SVG/1.1/DTD/svg11.dtd">
<svg version="1.1" id="Ñëîé_1" xmlns="http://www.w3.org/2000/svg" xmlns:xlink="http://www.w3.org/1999/xlink" x="0px" y="0px"
	 width="472.727px" height="451.949px" viewBox="0 0 472.727 451.949" enable-background="new 0 0 472.727 451.949"
	 xml:space="preserve">
<g>
	<path fill="#0D53FF" d="M145.801,309.789c2.936-1.329,6.193-2.079,9.616-2.079c9.571,0,17.797,5.764,21.373,14.019h0.016
		C236,305.737,289.619,269.872,326.462,216.042c5.78-8.439,10.993-17.107,15.641-25.959c-5.366-4.267-8.791-10.84-8.791-18.225
		c0-9.646,5.855-17.917,14.218-21.448c-5.319-11.772-11.481-23.208-18.468-34.246c-3.088,1.514-6.542,2.354-10.198,2.354
		c-12.872,0-23.299-10.442-23.299-23.314c0-2.125,0.291-4.189,0.826-6.146c-57.53-18.498-118.637-17.551-173.751,1.178
		c2.354,3.639,3.716,7.965,3.716,12.612c0,12.873-10.443,23.314-23.315,23.314c-1.773,0-3.486-0.198-5.137-0.581
		C91.345,189.716,108.162,255.394,145.801,309.789z"/>
	<path fill="#0D53FF" d="M97.034,80.328c0.915-3.348,1.896-6.695,2.949-10.014C88.058,80.588,77.112,92.36,67.45,105.569
		c4.173-2.477,8.407-4.846,12.705-7.078C81.821,89.67,88.457,82.606,97.034,80.328z"/>
	<path fill="#0D53FF" d="M336.371,110.6c7.781,12.199,14.6,24.889,20.394,37.96c0.933,0,1.865,0.061,2.768,0.184
		c2.752-8.531,5.074-17.139,6.925-25.821c-8.928-5.947-18.069-11.313-27.382-16.099C338.295,108.184,337.378,109.438,336.371,110.6z
		"/>
	<path fill="#0D53FF" d="M448.096,206.09c-18.743-29.461-43.358-55.955-73.49-77.558c-1.773,7.767-3.898,15.487-6.36,23.132
		c6.986,4.021,11.681,11.557,11.681,20.194c0,7.248-3.302,13.714-8.47,17.979c20.593,75.937,9.54,159.182-37.563,228.007
		c-0.49,0.719-0.994,1.407-1.498,2.125c31.233-15.547,59.073-39.029,80.171-69.865C442.591,306.228,453.844,255.058,448.096,206.09z
		"/>
	<path fill="#0D53FF" d="M308.821,74.167c3.041-1.452,6.452-2.262,10.043-2.262c12.873,0,23.314,10.426,23.314,23.299
		c0,0.947-0.061,1.88-0.183,2.798c8.944,4.541,17.75,9.585,26.357,15.165c2.66-15.211,3.974-30.576,3.974-45.925
		c-4.753-3.898-9.692-7.629-14.845-11.16c-35.069-23.987-74.805-35.989-114.354-36.906c4.128,2.538,8.225,5.183,12.276,7.95
		C275.523,40.9,293.364,56.754,308.821,74.167z"/>
	<path fill="#0D53FF" d="M363.138,194.241c-2.063,0.611-4.249,0.932-6.512,0.932c-2.201,0-4.326-0.306-6.345-0.887
		c-4.847,9.188-10.258,18.179-16.252,26.938c-38.235,55.848-93.885,92.998-155.313,109.448c0.015,0.106,0.015,0.229,0.015,0.336
		c0,5.077-1.635,9.785-4.402,13.607c13.133,13.652,27.871,26.203,44.138,37.333c30.958,21.188,64.606,35.345,99.022,42.853
		c3.026-3.945,5.976-7.979,8.82-12.123C371.425,346.74,382.341,267.12,363.138,194.241z"/>
	<path fill="#0D53FF" d="M132.15,329.862c0.273-5.688,2.599-10.838,6.223-14.738c-39.565-57.101-56.92-126.264-49.26-193.578
		c-4.173-3.119-7.277-7.614-8.622-12.812c-8.745,4.754-17.246,10.014-25.456,15.792c-36.767,63.248-37.18,138.908-6.115,200.98
		C76.561,331.192,104.645,332.584,132.15,329.862z"/>
	<path fill="#0D53FF" d="M300.55,80.788l0.917-1.086c-14.86-16.665-31.969-31.814-51.246-44.993
		c-8.104-5.55-16.405-10.61-24.86-15.212c-39.979,2.431-79.009,16.144-112.017,40.208c-2.507,6.65-4.707,13.361-6.65,20.135
		c3.136,0.488,6.071,1.604,8.653,3.241C173.856,62.12,239.213,60.729,300.55,80.788z"/>
	<path fill="#0D53FF" d="M444.438,184.56c-9.168-41.111-30.561-79.574-63.061-109.455c-0.413,14.614-1.966,29.218-4.716,43.669
		C403.421,137.413,426.092,159.743,444.438,184.56z"/>
	<path fill="#0D53FF" d="M167.604,350.869c-3.548,2.185-7.723,3.439-12.187,3.439c-10.075,0-18.65-6.392-21.893-15.349
		c-26.11,2.613-52.729,1.634-79.039-3.044c15.363,26.816,36.859,50.665,64.057,69.287c56.811,38.877,125.854,46.262,186.487,26.066
		c-31.861-8.21-62.942-22.03-91.746-41.754C196.451,378.006,181.194,365.01,167.604,350.869z"/>
</g>
</svg>
