<?xml version="1.0" encoding="utf-8"?>
<!-- Generator: Adobe Illustrator 16.0.3, SVG Export Plug-In . SVG Version: 6.00 Build 0)  -->
<!DOCTYPE svg PUBLIC "-//W3C//DTD SVG 1.1//EN" "http://www.w3.org/Graphics/SVG/1.1/DTD/svg11.dtd">
<svg version="1.1" id="Layer_1" xmlns="http://www.w3.org/2000/svg" xmlns:xlink="http://www.w3.org/1999/xlink" x="0px" y="0px"
	 width="670.453px" height="457.813px" viewBox="0 0 670.453 457.813" enable-background="new 0 0 670.453 457.813"
	 xml:space="preserve">
<linearGradient id="SVGID_1_" gradientUnits="userSpaceOnUse" x1="161.0332" y1="195.2061" x2="161.0332" y2="600.2173" gradientTransform="matrix(1 0 0 1 168 -153.1875)">
	<stop  offset="0" style="stop-color:#DFD4FF"/>
	<stop  offset="1" style="stop-color:#1F4173"/>
	<stop  offset="1" style="stop-color:#6E98FF"/>
</linearGradient>
<path fill="url(#SVGID_1_)" d="M618.518,359.756l-7.045-190.046c11.662-1.955,20.281-8.879,20.281-17.122
	c0-9.767-12.09-17.675-27.002-17.675c-7.193,0-13.729,1.842-18.566,4.843L452.453,77.75c1.508-2.202,2.354-4.644,2.354-7.213
	c0-9.762-12.088-17.676-27.002-17.676c-14.912,0-27.004,7.915-27.004,17.676c0,4.123,2.162,7.912,5.773,10.919L272.44,161.317
	c-4.619-2.417-10.475-3.869-16.85-3.869c-4.838,0-9.375,0.838-13.304,2.299L144.785,75.6c9.01-2.863,15.222-8.906,15.222-15.909
	c0-9.761-12.089-17.672-27.003-17.672c-14.913,0-27.003,7.911-27.003,17.672c0,3.796,1.833,7.311,4.942,10.19l-48.269,32.867
	c-4.467-5.732-13.561-9.656-24.059-9.656c-14.914,0-27.003,7.915-27.003,17.676c0,9.762,12.089,17.678,27.003,17.678
	c0.998,0,1.982-0.04,2.952-0.108l18.349,126.848c-13.595,1.358-24.014,9.039-24.014,18.313c0,10.021,12.149,18.176,27.327,18.512
	l3.271,104.46c-13.011,2.618-22.47,10.543-22.47,19.922c0,11.5,14.251,20.838,31.831,20.838c13.007,0,24.185-5.113,29.123-12.431
	l148.551-8.387c4.2,8.291,16.136,14.273,30.211,14.273c13.615,0,25.228-5.596,29.775-13.466l99.397,15.552
	c4.207,8.281,16.139,14.257,30.203,14.257c15.07,0,27.686-6.858,30.982-16.058l125.289-32.239c4.523,1.614,9.717,2.536,15.232,2.536
	c17.58,0,31.83-9.327,31.83-20.832C646.459,369.79,634.262,361.016,618.518,359.756z M615.404,359.61
	c-0.258-0.004-0.514-0.014-0.775-0.014c-6.064,0-11.736,1.113-16.563,3.039l-90.998-76.446c5.861-3.243,9.588-8.086,9.588-13.505
	c0-3.855-1.891-7.418-5.09-10.322l88.742-92.343c1.445,0.157,2.93,0.241,4.443,0.241c1.23,0,2.439-0.057,3.629-0.161L615.404,359.61
	z M443.123,405.362c-17.061,0-30.982,8.788-31.789,19.825l-95.771-14.981c0.003-0.121,0.014-0.229,0.014-0.35
	c0-5.855-3.699-11.146-9.644-14.937l167.604-108.05c2.678,1.302,5.732,2.285,9.043,2.875l-35.104,115.815
	C446.053,405.435,444.602,405.362,443.123,405.362z M104.104,406.782l70.555-43.256c4.823,2.494,10.911,3.989,17.537,3.989
	c6.172,0,11.878-1.294,16.528-3.489l49.352,33.514c-3.68,3.277-5.923,7.294-6.134,11.645l-144.285,8.142
	c0.02-0.308,0.036-0.616,0.036-0.931C107.692,412.926,106.391,409.658,104.104,406.782z M581.783,161.878
	c2.855,3.021,7.059,5.429,12.059,6.875l-86.857,90.38c-4.689-2.575-10.73-4.125-17.33-4.125c-7.428,0-14.156,1.964-19.039,5.146
	l-68.773-49.513c3.416-2.729,5.604-6.134,6.033-9.866L581.783,161.878z M467.748,283.013L299.233,391.649
	c-2.688-0.983-5.615-1.714-8.71-2.153l81.436-173.394c2.814,0.648,5.842,1.008,8.996,1.008c5.58,0,10.762-1.104,15.064-3.007
	l69.813,50.257c-2.025,2.479-3.182,5.313-3.182,8.324C462.65,276.542,464.545,280.107,467.748,283.013z M283.746,389.018
	c-7.625,0-14.622,1.755-20.104,4.685l-49.104-33.348c3.73-3.136,5.957-7.077,5.957-11.362c0-4.455-2.402-8.542-6.404-11.734
	L367.27,216.237L286.092,389.08C285.317,389.041,284.535,389.018,283.746,389.018z M354.049,200.876
	c0.557,4.498,3.682,8.52,8.418,11.436L208.581,333.893c-1.349-0.627-2.781-1.184-4.291-1.649l44.104-140.08
	c2.292,0.412,4.703,0.639,7.197,0.639c6.238,0,11.979-1.387,16.552-3.713L354.049,200.876z M244.797,191.329l-44.076,139.994
	c-1.592-0.325-3.246-0.563-4.944-0.705l-26.763-102.814l71.526-38.002C241.877,190.393,243.303,190.901,244.797,191.329z
	 M580.102,145.373c-1.508,2.204-2.354,4.645-2.354,7.216c0,0.627,0.053,1.238,0.148,1.847l-171.867,38.438
	c-3.021-4.951-9.361-8.797-17.223-10.354l32.789-94.776c1.992,0.305,4.068,0.471,6.207,0.471c7.193,0,13.729-1.848,18.566-4.85
	L580.102,145.373z M412.859,85.263c1.563,0.68,3.236,1.253,5.004,1.71l-32.859,94.979c-1.32-0.131-2.674-0.199-4.049-0.199
	c-11.355,0-21.07,4.594-25.061,11.099l-75.417-10.851c1.363-2.113,2.115-4.439,2.115-6.871c0-3.574-1.625-6.901-4.409-9.68
	L412.859,85.263z M236.551,162.596c-4.918,3.2-7.965,7.632-7.965,12.534c0,3.994,2.025,7.675,5.438,10.635l-66.725,35.445
	L129.826,77.245c1.042,0.081,2.102,0.125,3.178,0.125c1.538,0,3.042-0.088,4.51-0.251L236.551,162.596z M87.906,263.389
	c-2.451-2.457-5.768-4.511-9.668-5.968l47.85-180.573l38.019,146.06L87.906,263.389z M44.786,127.975
	c11.938-1.828,20.832-8.836,20.832-17.208c0-0.763-0.082-1.517-0.227-2.254l51.14-34.816c1.864,0.937,3.918,1.728,6.123,2.326
	L74.87,256.342c-3.293-0.877-6.894-1.366-10.669-1.366c-0.349,0-0.695,0.009-1.042,0.018L44.786,127.975z M66.33,291.971
	c14.634-0.715,26.169-8.708,26.169-18.472c0-1.582-0.305-3.117-0.875-4.584l74.198-39.418l26.282,100.969
	c-15.586,0.035-28.206,8.313-28.206,18.525c0,3.9,1.847,7.521,4.994,10.507l-69.693,42.727c-5.813-4.1-14.114-6.675-23.336-6.675
	c-2.149,0-4.246,0.141-6.274,0.408L66.33,291.971z M474.672,423.461c-1.693-8.465-11.145-15.333-23.529-17.438l35.104-115.81
	c1.115,0.091,2.254,0.144,3.408,0.144c4.008,0,7.809-0.574,11.229-1.6l91.438,76.814c-5.873,3.784-9.52,9.042-9.52,14.865
	c0,5.057,2.762,9.706,7.35,13.307L474.672,423.461z"/>
<g>
	<path fill="#1F4173" d="M299.227,317.046l-20.968-0.12c-7.756,0.242-10.623,7.118-10.623,9.511v0.332v1.452v32.188
		c0,2.102,1.548,3.799,3.452,3.799c1.917,0,3.46-1.697,3.46-3.799v-27.854h2.948v26.693c0,0.363,0.031,0.714,0.087,1.066v47.675
		c0,3.057,2.15,5.541,4.815,5.541c2.657,0,4.812-2.484,4.812-5.541v-42.066h2.389v42.066c0,3.057,2.153,5.541,4.815,5.541
		c2.663,0,4.813-2.484,4.813-5.541v-48.741v-0.305v-26.389h2.616v27.854c0,2.102,1.657,3.799,3.702,3.799
		c2.05,0,3.708-1.697,3.708-3.799V328.22v-1.452v-0.773C309.252,323.073,305.782,317.046,299.227,317.046z"/>
	<ellipse fill="#1F4173" cx="288.443" cy="306.137" rx="8.313" ry="9.138"/>
</g>
<g>
	<path fill="#1F4173" d="M204.305,279.805l-16.497-0.09c-6.102,0.182-8.357,5.385-8.357,7.194v0.251v1.099v24.354
		c0,1.591,1.217,2.873,2.716,2.873c1.507,0,2.721-1.282,2.721-2.873v-21.074h2.32v20.197c0,0.272,0.025,0.539,0.068,0.805v36.073
		c0,2.313,1.693,4.191,3.79,4.191c2.09,0,3.786-1.88,3.786-4.191v-31.827h1.878v31.827c0,2.313,1.694,4.191,3.789,4.191
		s3.786-1.88,3.786-4.191v-36.878v-0.231v-19.966h2.058v21.074c0,1.591,1.303,2.873,2.912,2.873c1.614,0,2.917-1.282,2.917-2.873
		v-24.354v-1.099v-0.585C212.191,284.365,209.462,279.805,204.305,279.805z"/>
	<ellipse fill="#1F4173" cx="195.82" cy="271.55" rx="6.542" ry="6.915"/>
</g>
<g>
	<path fill="#1F4173" d="M89.343,326.82l-20.766-0.122c-7.682,0.242-10.521,7.182-10.521,9.596v0.333v1.467v32.479
		c0,2.121,1.532,3.832,3.418,3.832c1.899,0,3.427-1.711,3.427-3.832v-28.106h2.92v26.936c0,0.365,0.031,0.719,0.086,1.074v48.108
		c0,3.084,2.13,5.588,4.77,5.588c2.631,0,4.765-2.504,4.765-5.588v-42.448h2.366v42.448c0,3.084,2.132,5.588,4.769,5.588
		c2.636,0,4.766-2.504,4.766-5.588v-49.184v-0.31v-26.626h2.591v28.106c0,2.121,1.64,3.832,3.666,3.832
		c2.03,0,3.671-1.711,3.671-3.832v-32.479v-1.467v-0.778C99.271,332.901,95.835,326.82,89.343,326.82z"/>
	<ellipse fill="#1F4173" cx="78.663" cy="315.812" rx="8.233" ry="9.221"/>
</g>
<g>
	<path fill="#1F4173" d="M74.269,204.73l-14.539-0.09c-5.378,0.181-7.365,5.354-7.365,7.153v0.249v1.093v24.208
		c0,1.583,1.072,2.857,2.393,2.857c1.329,0,2.4-1.274,2.4-2.857v-20.949h2.044v20.076c0,0.272,0.021,0.535,0.06,0.802v35.857
		c0,2.298,1.491,4.167,3.34,4.167c1.842,0,3.336-1.87,3.336-4.167v-31.64h1.657v31.64c0,2.298,1.492,4.167,3.337,4.167
		c1.847,0,3.337-1.87,3.337-4.167v-36.658v-0.23v-19.846h1.813v20.949c0,1.583,1.148,2.857,2.566,2.857
		c1.422,0,2.571-1.274,2.571-2.857v-24.208v-1.093v-0.582C81.219,209.264,78.813,204.73,74.269,204.73z"/>
	<ellipse fill="#1F4173" cx="66.791" cy="196.525" rx="5.764" ry="6.874"/>
</g>
<g>
	<path fill="#1F4173" d="M45.79,67.084l-9.569-0.057c-3.54,0.112-4.848,3.327-4.848,4.445v0.154v0.679v15.043
		c0,0.982,0.706,1.775,1.575,1.775c0.875,0,1.579-0.793,1.579-1.775V74.332h1.346v12.475c0,0.168,0.015,0.332,0.04,0.498v22.281
		c0,1.428,0.981,2.589,2.198,2.589c1.213,0,2.196-1.162,2.196-2.589V89.925h1.09v19.661c0,1.428,0.982,2.589,2.197,2.589
		c1.216,0,2.196-1.162,2.196-2.589V86.807v-0.143V74.332h1.193v13.017c0,0.982,0.756,1.775,1.69,1.775
		c0.936,0,1.692-0.793,1.692-1.775V72.305v-0.679v-0.36C50.365,69.901,48.781,67.084,45.79,67.084z"/>
	<ellipse fill="#1F4173" cx="40.868" cy="61.986" rx="3.793" ry="4.271"/>
</g>
<g>
	<path fill="#1F4173" d="M139.957,26.507l-8.78-0.043c-3.248,0.086-4.448,2.567-4.448,3.431v0.119v0.524v11.613
		c0,0.758,0.647,1.37,1.445,1.37c0.803,0,1.449-0.612,1.449-1.37V32.102h1.235v9.631c0,0.129,0.013,0.255,0.037,0.384v17.202
		c0,1.101,0.9,1.998,2.016,1.998c1.113,0,2.016-0.897,2.016-1.998v-15.18h0.999v15.179c0,1.101,0.902,1.998,2.017,1.998
		c1.116,0,2.016-0.897,2.016-1.998V41.732v-0.11v-9.521h1.095V42.15c0,0.758,0.693,1.37,1.55,1.37c0.858,0,1.553-0.612,1.553-1.37
		V30.538v-0.524v-0.278C144.155,28.682,142.702,26.507,139.957,26.507z"/>
	<ellipse fill="#1F4173" cx="135.441" cy="22.572" rx="3.481" ry="3.297"/>
</g>
<g>
	<path fill="#1F4173" d="M455.855,344.432l-20.223-0.109c-7.48,0.219-10.246,6.466-10.246,8.641v0.301v1.32v29.244
		c0,1.911,1.492,3.452,3.329,3.452c1.852,0,3.338-1.541,3.338-3.452v-25.306h2.843v24.252c0,0.329,0.03,0.647,0.085,0.968v43.317
		c0,2.776,2.073,5.033,4.646,5.033c2.561,0,4.639-2.257,4.639-5.033v-38.22h2.306v38.219c0,2.776,2.075,5.033,4.644,5.033
		s4.643-2.257,4.643-5.033v-44.285v-0.276v-23.977h2.522v25.307c0,1.911,1.597,3.452,3.569,3.452c1.978,0,3.576-1.541,3.576-3.452
		v-29.244v-1.32v-0.702C465.524,349.907,462.177,344.432,455.855,344.432z"/>
	<ellipse fill="#1F4173" cx="445.455" cy="334.519" rx="8.019" ry="8.303"/>
</g>
<g>
	<path fill="#1F4173" d="M499.633,216.322l-13.326-0.073c-4.931,0.146-6.752,4.342-6.752,5.802v0.202v0.887v19.639
		c0,1.285,0.982,2.318,2.193,2.318c1.22,0,2.2-1.033,2.2-2.318v-16.995h1.873v16.289c0,0.22,0.019,0.435,0.056,0.649v29.092
		c0,1.865,1.367,3.381,3.061,3.381c1.688,0,3.059-1.516,3.059-3.381v-25.668h1.52v25.668c0,1.865,1.368,3.381,3.06,3.381
		s3.06-1.516,3.06-3.381v-29.742v-0.188v-16.102h1.662v16.996c0,1.283,1.052,2.318,2.354,2.318c1.303,0,2.355-1.035,2.355-2.318
		v-19.64v-0.887v-0.471C506.004,220.001,503.798,216.322,499.633,216.322z"/>
	<ellipse fill="#1F4173" cx="492.778" cy="209.666" rx="5.282" ry="5.576"/>
</g>
<g>
	<path fill="#1F4173" d="M614.696,105.982l-11.047-0.059c-4.087,0.122-5.598,3.587-5.598,4.794v0.166v0.733v16.225
		c0,1.061,0.814,1.915,1.818,1.915c1.011,0,1.823-0.854,1.823-1.915v-14.04h1.554v13.456c0,0.182,0.016,0.359,0.046,0.537v24.033
		c0,1.542,1.133,2.792,2.537,2.792c1.398,0,2.535-1.251,2.535-2.792v-21.206h1.259v21.206c0,1.542,1.134,2.792,2.536,2.792
		s2.535-1.251,2.535-2.792v-24.57v-0.154v-13.302h1.378v14.04c0,1.061,0.871,1.915,1.948,1.915c1.082,0,1.954-0.854,1.954-1.915
		v-16.225v-0.733v-0.389C619.979,109.022,618.149,105.982,614.696,105.982z"/>
	<ellipse fill="#1F4173" cx="609.014" cy="100.484" rx="4.381" ry="4.606"/>
</g>
<g>
	<path fill="#1F4173" d="M435.969,32.925l-9.571-0.044c-3.544,0.092-4.853,2.713-4.853,3.626v0.126v0.555V49.46
		c0,0.803,0.706,1.449,1.574,1.449c0.878,0,1.583-0.646,1.583-1.449V38.84h1.345v10.177c0,0.139,0.014,0.271,0.041,0.407v18.179
		c0,1.166,0.981,2.111,2.197,2.111c1.213,0,2.197-0.946,2.197-2.111V51.562h1.09v16.041c0,1.166,0.982,2.111,2.196,2.111
		c1.219,0,2.199-0.946,2.199-2.111V49.017v-0.116V38.84h1.194v10.619c0,0.803,0.755,1.449,1.688,1.449
		c0.938,0,1.694-0.646,1.694-1.449V37.187v-0.555v-0.293C440.545,35.225,438.961,32.925,435.969,32.925z"/>
	<ellipse fill="#1F4173" cx="431.044" cy="28.767" rx="3.796" ry="3.484"/>
</g>
<g>
	<path fill="#1F4173" d="M390.537,149.782l-11.236-0.064c-4.158,0.13-5.693,3.863-5.693,5.163v0.179v0.789v17.475
		c0,1.142,0.83,2.062,1.851,2.062c1.028,0,1.854-0.92,1.854-2.062v-15.122h1.58v14.491c0,0.197,0.017,0.388,0.047,0.579v25.883
		c0,1.66,1.151,3.009,2.58,3.009c1.424,0,2.58-1.349,2.58-3.009v-22.837h1.278v22.837c0,1.66,1.154,3.009,2.581,3.009
		s2.578-1.349,2.578-3.009v-26.462v-0.166v-14.325h1.402v15.122c0,1.142,0.888,2.062,1.983,2.062c1.099,0,1.986-0.92,1.986-2.062
		v-17.475v-0.789v-0.419C395.91,153.056,394.05,149.782,390.537,149.782z"/>
	<ellipse fill="#1F4173" cx="384.758" cy="143.859" rx="4.456" ry="4.961"/>
</g>
<g>
	<path fill="#1F4173" d="M265.438,126.029l-12.547-0.061c-4.643,0.122-6.358,3.607-6.358,4.821v0.168v0.735v16.318
		c0,1.065,0.925,1.926,2.064,1.926c1.149,0,2.072-0.86,2.072-1.926v-14.12h1.764v13.531c0,0.184,0.019,0.362,0.052,0.541v24.168
		c0,1.551,1.286,2.81,2.882,2.81c1.589,0,2.88-1.259,2.88-2.81v-21.325h1.429v21.325c0,1.551,1.289,2.81,2.882,2.81
		c1.593,0,2.88-1.259,2.88-2.81v-24.709v-0.154V133.89h1.565v14.121c0,1.065,0.992,1.926,2.216,1.926
		c1.227,0,2.218-0.86,2.218-1.926v-16.318v-0.735v-0.392C271.438,129.084,269.361,126.029,265.438,126.029z"/>
	<ellipse fill="#1F4173" cx="258.984" cy="120.498" rx="4.977" ry="4.633"/>
</g>
<g>
	<path fill="#1F4173" d="M625.086,312.806l-17.254-0.092c-6.383,0.188-8.742,5.535-8.742,7.397v0.257v1.129v25.035
		c0,1.634,1.273,2.954,2.842,2.954c1.577,0,2.848-1.319,2.848-2.954v-21.664h2.425v20.762c0,0.281,0.025,0.555,0.072,0.829v37.081
		c0,2.377,1.77,4.31,3.964,4.31c2.185,0,3.958-1.933,3.958-4.31v-32.718h1.966v32.718c0,2.377,1.771,4.31,3.964,4.31
		c2.19,0,3.959-1.933,3.959-4.31v-37.91v-0.238v-20.522h2.152v21.664c0,1.634,1.36,2.954,3.045,2.954
		c1.688,0,3.052-1.319,3.052-2.954v-25.035v-1.129v-0.603C633.335,317.494,630.479,312.806,625.086,312.806z"/>
	<ellipse fill="#1F4173" cx="616.212" cy="304.322" rx="6.842" ry="7.108"/>
</g>
</svg>
