<?xml version="1.0" encoding="utf-8"?>
<!-- Generator: Adobe Illustrator 16.0.3, SVG Export Plug-In . SVG Version: 6.00 Build 0)  -->
<!DOCTYPE svg PUBLIC "-//W3C//DTD SVG 1.1//EN" "http://www.w3.org/Graphics/SVG/1.1/DTD/svg11.dtd">
<svg version="1.1" id="Layer_1" xmlns="http://www.w3.org/2000/svg" xmlns:xlink="http://www.w3.org/1999/xlink" x="0px" y="0px"
	 width="556.472px" height="469.477px" viewBox="0 0 556.472 469.477" enable-background="new 0 0 556.472 469.477"
	 xml:space="preserve">
<circle fill="#0D53FF" cx="27.63" cy="181.414" r="15"/>
<circle fill="#0D53FF" cx="272.63" cy="229.414" r="15"/>
<circle fill="#0D53FF" cx="156.63" cy="30.414" r="15"/>
<path fill="none" stroke="#3D75FF" stroke-width="2" stroke-miterlimit="10" d="M272.896,209.96
	c0-99.242-43.581-179.547-97.438-179.547"/>
<path fill="none" stroke="#3D75FF" stroke-width="2" stroke-miterlimit="10" d="M255.927,213.802
	c0-17.669-93.995-31.966-210.156-31.966"/>
<path fill="none" stroke="#3D75FF" stroke-width="2" stroke-miterlimit="10" d="M147.333,49.023
	c0,69.527-45.425,125.781-101.563,125.781"/>
<circle fill="#0D53FF" cx="297.63" cy="443.414" r="15"/>
<circle fill="#0D53FF" cx="523.63" cy="334.414" r="15"/>
<circle fill="#0D53FF" cx="457.63" cy="90.414" r="15"/>
<circle fill="#0D53FF" cx="96.63" cy="412.414" r="15"/>
<path fill="none" stroke="#3D75FF" stroke-width="2" stroke-miterlimit="10" d="M514.521,315.429
	c0-46.438-99.32-84.016-222.063-84.016"/>
<path fill="none" stroke="#3D75FF" stroke-width="2" stroke-miterlimit="10" d="M448.896,106.835
	c0,60.628-71.632,109.688-160.156,109.688"/>
<path fill="none" stroke="#3D75FF" stroke-width="2" stroke-miterlimit="10" d="M302.021,425.585
	c0-98.896-10.133-178.906-22.656-178.906"/>
<path fill="none" stroke="#3D75FF" stroke-width="2" stroke-miterlimit="10" d="M96.552,391.481
	c0-86.091,71.279-155.739,159.375-155.739"/>
</svg>
