<?xml version="1.0" encoding="utf-8"?>
<!-- Generator: Adobe Illustrator 16.0.3, SVG Export Plug-In . SVG Version: 6.00 Build 0)  -->
<!DOCTYPE svg PUBLIC "-//W3C//DTD SVG 1.1//EN" "http://www.w3.org/Graphics/SVG/1.1/DTD/svg11.dtd">
<svg version="1.1" id="Layer_1" xmlns="http://www.w3.org/2000/svg" xmlns:xlink="http://www.w3.org/1999/xlink" x="0px" y="0px"
	 width="314.063px" height="256.25px" viewBox="0 0 314.063 256.25" enable-background="new 0 0 314.063 256.25"
	 xml:space="preserve">
<line fill="none" stroke="#CFDDFF" stroke-width="3" stroke-miterlimit="10" x1="10.594" y1="12" x2="10.594" y2="237"/>
<line fill="none" stroke="#CFDDFF" stroke-width="3" stroke-miterlimit="10" x1="143.594" y1="12" x2="143.594" y2="237"/>
<line fill="none" stroke="#CFDDFF" stroke-width="3" stroke-miterlimit="10" x1="280.594" y1="12" x2="280.594" y2="237"/>
<line fill="none" stroke="#3D75FF" stroke-width="2" stroke-miterlimit="10" x1="127.094" y1="124" x2="160.094" y2="124"/>
<line fill="none" stroke="#3D75FF" stroke-width="2" stroke-miterlimit="10" x1="127.094" y1="237" x2="160.094" y2="237"/>
<line fill="none" stroke="#0D53FF" stroke-width="3" stroke-miterlimit="10" x1="9.74" y1="12.389" x2="143.084" y2="124.189"/>
<line fill="none" stroke="#6E98FF" stroke-width="3" stroke-miterlimit="10" x1="143.084" y1="124.189" x2="280.596" y2="125.196"/>
<line fill="none" stroke="#6E98FF" stroke-width="3" stroke-miterlimit="10" x1="9.74" y1="125.196" x2="143.084" y2="124.189"/>
<line fill="none" stroke="#0D53FF" stroke-width="3" stroke-miterlimit="10" x1="143.084" y1="124.189" x2="280.596" y2="236.997"/>
<line fill="none" stroke="#0D53FF" stroke-width="3" stroke-miterlimit="10" x1="5.469" y1="12.389" x2="143.918" y2="70.807"/>
<line fill="none" stroke="#0D53FF" stroke-width="3" stroke-miterlimit="10" x1="143.918" y1="70.807" x2="280.596" y2="125.196"/>
<line fill="none" stroke="#0D53FF" stroke-width="3" stroke-miterlimit="10" x1="9.74" y1="236.997" x2="142.251" y2="178.578"/>
<line fill="none" stroke="#9EBAFF" stroke-width="3" stroke-miterlimit="10" x1="9.74" y1="236.997" x2="142.251" y2="178.578"/>
<line fill="none" stroke="#9EBAFF" stroke-width="3" stroke-miterlimit="10" x1="142.251" y1="178.578" x2="280.596" y2="12.389"/>
<line fill="none" stroke="#6E98FF" stroke-width="3" stroke-miterlimit="10" x1="9.74" y1="125.196" x2="143.084" y2="12.389"/>
<line fill="none" stroke="#6E98FF" stroke-width="3" stroke-miterlimit="10" x1="143.094" y1="12.5" x2="280.094" y2="12.5"/>
<line fill="none" stroke="#9EBAFF" stroke-width="3" stroke-miterlimit="10" x1="10.094" y1="237.5" x2="143.094" y2="237.5"/>
<line fill="none" stroke="#9EBAFF" stroke-width="3" stroke-miterlimit="10" x1="142.667" y1="237.5" x2="280.596" y2="236.997"/>
</svg>
