<?xml version="1.0" encoding="utf-8"?>
<!-- Generator: Adobe Illustrator 16.0.3, SVG Export Plug-In . SVG Version: 6.00 Build 0)  -->
<!DOCTYPE svg PUBLIC "-//W3C//DTD SVG 1.1//EN" "http://www.w3.org/Graphics/SVG/1.1/DTD/svg11.dtd">
<svg version="1.1" id="Layer_1" xmlns="http://www.w3.org/2000/svg" xmlns:xlink="http://www.w3.org/1999/xlink" x="0px" y="0px"
	 width="585.938px" height="358.391px" viewBox="0 -32.609 585.938 358.391" enable-background="new 0 -32.609 585.938 358.391"
	 xml:space="preserve">
<ellipse fill="#CFDDFF" cx="289.732" cy="76.444" rx="17.006" ry="18.506"/>
<ellipse fill="#CFDDFF" cx="288.766" cy="117.132" rx="38.516" ry="15.931"/>
<ellipse fill="#9EBAFF" cx="342.703" cy="158.344" rx="41.578" ry="15.719"/>
<ellipse fill="#6E98FF" cx="398.703" cy="197.344" rx="41.578" ry="15.719"/>
<ellipse fill="#3D75FF" cx="459.063" cy="244.141" rx="49.22" ry="17.922"/>
<ellipse fill="#9EBAFF" cx="234.747" cy="118.198" rx="18.36" ry="18.26"/>
<ellipse fill="#9EBAFF" cx="233.703" cy="158.344" rx="41.578" ry="15.719"/>
<ellipse fill="#6E98FF" cx="183.637" cy="154.245" rx="19.469" ry="20.213"/>
<ellipse fill="#6E98FF" cx="183.703" cy="196.344" rx="41.578" ry="15.718"/>
<ellipse fill="#3D75FF" cx="237.063" cy="245.141" rx="49.219" ry="17.922"/>
<ellipse fill="#6E98FF" cx="289.637" cy="155.245" rx="19.468" ry="20.213"/>
<ellipse fill="#6E98FF" cx="289.703" cy="197.344" rx="41.578" ry="15.719"/>
<circle fill="#3D75FF" cx="122.984" cy="195.141" r="23.047"/>
<ellipse fill="#3D75FF" cx="123.063" cy="243.141" rx="49.219" ry="17.922"/>
<circle fill="#3D75FF" cx="236.984" cy="197.141" r="23.047"/>
<ellipse fill="#3D75FF" cx="350.063" cy="244.141" rx="49.22" ry="17.922"/>
<circle fill="#3D75FF" cx="349.984" cy="196.141" r="23.047"/>
<ellipse fill="#0D53FF" cx="405.683" cy="239.269" rx="24.313" ry="24.05"/>
<ellipse fill="#0D53FF" cx="405.766" cy="289.359" rx="51.922" ry="18.702"/>
<ellipse fill="#0D53FF" cx="293.684" cy="237.269" rx="24.313" ry="24.05"/>
<ellipse fill="#0D53FF" cx="293.766" cy="287.359" rx="51.922" ry="18.702"/>
<ellipse fill="#0D53FF" cx="177.683" cy="237.269" rx="24.313" ry="24.05"/>
<ellipse fill="#0D53FF" cx="177.766" cy="287.359" rx="51.922" ry="18.702"/>
<ellipse fill="#0D53FF" cx="66.683" cy="237.269" rx="24.313" ry="24.05"/>
<ellipse fill="#0D53FF" cx="66.766" cy="287.359" rx="51.922" ry="18.702"/>
<ellipse fill="#9EBAFF" cx="343.747" cy="118.198" rx="18.36" ry="18.26"/>
<ellipse fill="#6E98FF" cx="398.637" cy="155.245" rx="19.47" ry="20.213"/>
<circle fill="#3D75FF" cx="458.984" cy="196.141" r="23.047"/>
<ellipse fill="#0D53FF" cx="514.683" cy="239.271" rx="24.313" ry="24.05"/>
<ellipse fill="#0D53FF" cx="514.766" cy="289.359" rx="51.922" ry="18.702"/>
</svg>
