<?xml version="1.0" encoding="utf-8"?>
<!-- Generator: Adobe Illustrator 16.0.3, SVG Export Plug-In . SVG Version: 6.00 Build 0)  -->
<!DOCTYPE svg PUBLIC "-//W3C//DTD SVG 1.1//EN" "http://www.w3.org/Graphics/SVG/1.1/DTD/svg11.dtd">
<svg version="1.1" id="Layer_1" xmlns="http://www.w3.org/2000/svg" xmlns:xlink="http://www.w3.org/1999/xlink" x="0px" y="0px"
	 width="266.667px" height="161.333px" viewBox="0 0 266.667 161.333" enable-background="new 0 0 266.667 161.333"
	 xml:space="preserve">
<line fill="none" stroke="#333333" stroke-width="2" stroke-miterlimit="10" x1="20.335" y1="31.667" x2="20.335" y2="150.667"/>
<line fill="none" stroke="#4D4D4D" stroke-width="2" stroke-miterlimit="10" x1="20.335" y1="149.667" x2="253.335" y2="149.667"/>
<ellipse fill="#4D4D4D" cx="49.457" cy="106.692" rx="3.878" ry="4.141"/>
<ellipse fill="none" stroke="#000000" stroke-miterlimit="10" cx="338.335" cy="346.083" rx="0" ry="0.75"/>
<ellipse fill="#4D4D4D" cx="88.457" cy="106.692" rx="3.878" ry="4.141"/>
<ellipse fill="#4D4D4D" cx="96.457" cy="84.692" rx="3.878" ry="4.141"/>
<ellipse fill="#4D4D4D" cx="142.457" cy="98.692" rx="3.878" ry="4.141"/>
<ellipse fill="#4D4D4D" cx="154.457" cy="76.692" rx="3.878" ry="4.141"/>
<ellipse fill="#4D4D4D" cx="215.457" cy="21.692" rx="3.878" ry="4.141"/>
<ellipse fill="#4D4D4D" cx="115.457" cy="54.692" rx="3.878" ry="4.141"/>
<ellipse fill="#4D4D4D" cx="49.457" cy="136.692" rx="3.878" ry="4.141"/>
<ellipse fill="#4D4D4D" cx="191.457" cy="80.692" rx="3.878" ry="4.141"/>
<ellipse fill="#4D4D4D" cx="162.457" cy="46.692" rx="3.878" ry="4.141"/>
<ellipse fill="#4D4D4D" cx="34.457" cy="124.692" rx="3.878" ry="4.141"/>
</svg>
